<svg width="113.5" height="50" viewBox="0 0 113.5 50" fill="none" xmlns="http://www.w3.org/2000/svg">
<g id="Group">
<path d="M25.0016 0C11.1935 0 0 11.187 0 24.9952C0 38.8033 11.1935 50 24.9984 50C38.8033 50 49.9968 38.8001 49.9968 24.9952C49.9968 11.1902 38.8097 0 25.0016 0ZM30.9721 33.9878V35.9384H24.0071V14.0231H25.9961V33.9878H30.9721ZM39.8075 39.7818C35.8422 43.7376 30.5839 45.9095 25.0016 45.9095C19.4193 45.9095 14.1643 43.7344 10.1957 39.7818C6.2496 35.8293 4.07764 30.5807 4.07764 24.992C4.08085 13.452 13.4681 4.0616 25.0016 4.0616C25.2422 4.0616 25.7395 4.06801 25.9961 4.08085V6.02823C25.7684 6.02182 25.2326 6.01861 25.0016 6.01861C19.9358 6.01861 15.1748 7.98845 11.5913 11.5784C8.0077 15.1588 6.03144 19.923 6.03144 24.992C6.03144 30.061 8.00449 34.8219 11.5913 38.4055C15.1748 41.9859 19.9358 43.9589 25.0016 43.9589C35.0337 43.9589 43.2724 36.1341 43.9365 26.2656V25.9833H30.9881V24.0423H45.0882L45.9224 24.0359V24.992C45.9224 30.5807 43.7504 35.8325 39.8075 39.7818ZM20.0225 17.0132C20.0225 18.6622 18.6782 20.0064 17.0196 20.0064C15.3609 20.0064 14.0263 18.6622 14.0263 17.0132C14.0263 15.3641 15.3738 14.0103 17.0196 14.0103C18.6654 14.0103 20.0225 15.3545 20.0225 17.0132Z" fill="#000000"/>
<path d="M68.6428 8.70076H61.1773V41.0235H84.1128V34.729H68.6428V8.70076Z" fill="#000000"/>
<path d="M100.539 28.7039H106.615V34.3536C105.499 34.7803 103.314 35.2102 101.235 35.2102C94.514 35.2102 92.2715 31.7934 92.2715 24.8605C92.2715 17.9275 94.4018 14.3536 101.126 14.3536C104.861 14.3536 106.994 15.5278 108.752 17.7671L113.398 13.5034C110.568 9.44823 105.605 8.22269 100.966 8.22269C90.5102 8.22269 85.0145 13.9301 85.0145 24.8092C85.0145 35.6882 89.9744 41.5047 100.911 41.5047C105.922 41.5047 110.831 40.2246 113.5 38.3574V22.6757H100.539V28.7039Z" fill="#000000"/>
</g>
</svg>
