<svg preserveAspectRatio="none" overflow="visible" style="display: block;" width="82" height="82" viewBox="0 0 82 82" fill="none" xmlns="http://www.w3.org/2000/svg">
<g id="vip">
<path id="Union" fill-rule="evenodd" clip-rule="evenodd" d="M40.9997 23.5753C41.3769 23.5753 41.7235 23.7828 41.9023 24.115L51.0112 41.054L64.8021 23.9573C65.1013 23.5864 65.6167 23.4707 66.0458 23.6779C66.4748 23.8852 66.7043 24.3608 66.5997 24.8256L59.22 57.6251C59.1147 58.0928 58.6992 58.4251 58.2199 58.4251H23.7796C23.3004 58.4248 22.8855 58.0926 22.7803 57.6251L15.3997 24.8256C15.2952 24.361 15.525 23.8853 15.9536 23.6779C16.3827 23.4706 16.8981 23.5864 17.1973 23.9573L30.9874 41.054L40.0972 24.115L40.1714 23.9965C40.3626 23.7342 40.6697 23.5754 40.9997 23.5753ZM32.0627 43.3854C31.9 43.6877 31.5962 43.8883 31.2544 43.9201C30.9126 43.9517 30.5773 43.8102 30.3618 43.5431L18.366 28.6702L24.5995 56.3756H57.3999L63.6335 28.6702L51.6376 43.5431C51.422 43.8102 51.0869 43.9519 50.7451 43.9201C50.4032 43.8883 50.0994 43.6878 49.9368 43.3854L40.9997 26.7642L32.0627 43.3854Z" fill="black"/>
</g>
</svg>
